<?xml version="1.0" encoding="UTF-8"?>
<svg version="1.1" xmlns="http://www.w3.org/2000/svg" width="750" height="750">
<path d="M0 0 C247.5 0 495 0 750 0 C750 247.5 750 495 750 750 C502.5 750 255 750 0 750 C0 502.5 0 255 0 0 Z " fill="#043141" transform="translate(0,0)"/>
<path d="M0 0 C8.91 0 17.82 0 27 0 C27.0093457 2.30524658 27.01869141 4.61049316 27.02832031 6.9855957 C27.06222143 14.63718281 27.11784266 22.28850393 27.18390274 29.93987751 C27.22326345 34.57492211 27.25550751 39.20977998 27.27099609 43.8449707 C27.2862383 48.32561297 27.32081631 52.80574145 27.36830902 57.28615379 C27.38304532 58.98795267 27.39103652 60.68982493 27.39188385 62.39168739 C27.36635795 76.15563536 27.36635795 76.15563536 32 89 C37.30600615 94.07018366 43.28616912 93.47317232 50.37890625 93.53125 C55.4127418 92.79273691 58.63518688 90.75475972 61.75 86.75 C64.50563807 80.68759624 65.29793923 74.71527923 65.31884766 68.11523438 C65.32889328 67.3727948 65.3389389 66.63035522 65.34928894 65.86541748 C65.37987514 63.44153532 65.39708678 61.01776231 65.4140625 58.59375 C65.43279399 56.90123572 65.45236885 55.20873059 65.4727478 53.51623535 C65.52386594 49.08420221 65.56359979 44.65213887 65.60089111 40.2199707 C65.64105883 35.68823905 65.69209265 31.15663086 65.7421875 26.625 C65.83870598 17.75007851 65.9221815 8.87510518 66 0 C74.91 0 83.82 0 93 0 C93.04532358 10.76225871 93.0819579 21.52445323 93.10362434 32.28678608 C93.11402717 37.2850584 93.12812193 42.28326159 93.15087891 47.28149414 C93.17273276 52.11202352 93.18459491 56.94248672 93.18975449 61.77306175 C93.19342784 63.60888904 93.20060052 65.44471302 93.21146011 67.28051186 C93.30142909 83.13114237 93.14682263 97.56289057 81.6875 109.875 C71.68707151 119.02200024 59.33814783 121.57254505 46.125 121.4375 C45.0736084 121.42920166 44.0222168 121.42090332 42.93896484 121.41235352 C30.55450038 121.14329255 20.47490603 118.42595999 11 110 C1.43780311 99.8801804 -0.177407 88.64865317 -0.11352539 75.26733398 C-0.11367142 74.44671982 -0.11381744 73.62610565 -0.1139679 72.78062439 C-0.11327828 70.10241941 -0.10553104 67.42428639 -0.09765625 64.74609375 C-0.09578868 62.87565651 -0.09436638 61.00521879 -0.09336853 59.13478088 C-0.08957002 54.23744328 -0.0797628 49.34013584 -0.06866455 44.44281006 C-0.05839281 39.43518481 -0.05385861 34.42755464 -0.04882812 29.41992188 C-0.03813788 19.61326594 -0.02056297 9.80664021 0 0 Z " fill="#F4BD00" transform="translate(438,303)"/>
<path d="M0 0 C7.92232734 4.96849592 13.73759501 14.01441037 16 23 C17.34622765 35.98581059 16.94514341 47.99779177 8.9453125 58.765625 C2.18247728 66.76870336 -5.26302683 72.42749042 -15.953125 73.3359375 C-17.38516597 73.36573031 -18.81765273 73.37820149 -20.25 73.375 C-20.99926758 73.37338867 -21.74853516 73.37177734 -22.52050781 73.37011719 C-31.44665256 73.1734721 -37.03921176 70.56863059 -44 65 C-44.33 79.19 -44.66 93.38 -45 108 C-53.25 108 -61.5 108 -70 108 C-70 71.37 -70 34.74 -70 -3 C-61.75 -3 -53.5 -3 -45 -3 C-44.67 -0.69 -44.34 1.62 -44 4 C-42.7934375 2.88625 -42.7934375 2.88625 -41.5625 1.75 C-29.48799071 -8.01532895 -13.15688701 -7.69360734 0 0 Z " fill="#F4BD00" transform="translate(607,351)"/>
<path d="M0 0 C1.46022583 0.00241699 1.46022583 0.00241699 2.94995117 0.00488281 C10.32792846 0.12983984 17.90971855 0.56418705 24.4375 4.375 C25.4765625 6.0625 25.4765625 6.0625 25.4375 8.375 C24.38358774 10.91357885 23.29784426 13.21995527 22 15.625 C21.66162109 16.2746875 21.32324219 16.924375 20.97460938 17.59375 C20.13963113 19.19314494 19.28996886 20.78485859 18.4375 22.375 C17.24125 21.88 16.045 21.385 14.8125 20.875 C8.45933777 18.70984231 2.06700338 19.1203818 -4.5625 19.375 C-4.8925 21.025 -5.2225 22.675 -5.5625 24.375 C-1.14218526 26.71026062 3.13294225 28.66040881 7.875 30.25 C13.53930711 32.23290249 19.14123196 35.07873196 23.4375 39.375 C23.59605469 38.54097656 23.75460938 37.70695312 23.91796875 36.84765625 C26.73259051 23.27216013 32.12098261 13.68685942 43.796875 5.98828125 C54.73643139 -0.69520512 66.74895398 -1.54185448 79.2265625 1.2109375 C83.37199303 2.55240285 86.80717488 3.95478325 90.4375 6.375 C89.08900163 10.73470831 87.38842154 14.68841438 85.3125 18.75 C84.77367187 19.80960937 84.23484375 20.86921875 83.6796875 21.9609375 C83.26976562 22.75757813 82.85984375 23.55421875 82.4375 24.375 C81.75429687 24.05402344 81.07109375 23.73304688 80.3671875 23.40234375 C74.48897235 21.34104964 66.91748201 20.98300719 61.07421875 23.3203125 C57.5197148 25.74072419 55.34306533 28.58589899 53.4375 32.375 C52.45997116 38.75976043 52.75264039 45.12940065 56.125 50.75 C59.23583823 54.601514 62.31155895 56.13078291 67.08984375 56.6796875 C72.60900071 56.81596298 77.143794 56.01290408 82.4375 54.375 C83.80395701 56.97336136 85.15580669 59.57765556 86.5 62.1875 C86.88994141 62.92548828 87.27988281 63.66347656 87.68164062 64.42382812 C88.04580078 65.13603516 88.40996094 65.84824219 88.78515625 66.58203125 C89.12554932 67.2366333 89.46594238 67.89123535 89.81665039 68.56567383 C90.4375 70.375 90.4375 70.375 89.4375 73.375 C87.109375 74.5078125 87.109375 74.5078125 84.1875 75.5 C82.75664062 75.99886719 82.75664062 75.99886719 81.296875 76.5078125 C70.16759725 79.88308526 57.63643531 80.06704928 47.0859375 74.921875 C39.17920411 70.30378293 32.59296997 64.68593994 28.4375 56.375 C28.2415625 57.08785156 28.045625 57.80070312 27.84375 58.53515625 C25.58394739 65.77236892 23.05774148 70.45820118 16.4375 74.375 C4.54465628 80.06730127 -10.23969606 80.2362753 -22.8125 76.6875 C-27.7404214 74.93157398 -31.55989688 72.72601657 -35.5625 69.375 C-35.01457105 64.7567417 -32.97285512 61.39350353 -30.5 57.5625 C-30.12294922 56.96501953 -29.74589844 56.36753906 -29.35742188 55.75195312 C-28.43260434 54.28863423 -27.49847935 52.83120477 -26.5625 51.375 C-24.43688655 52.41591826 -22.35764987 53.49175396 -20.30078125 54.6640625 C-14.73894966 57.72710019 -9.96220143 59.61829578 -3.5625 58.375 C-2.5725 57.715 -1.5825 57.055 -0.5625 56.375 C-0.3122843 53.29134129 -0.3122843 53.29134129 -0.5625 50.375 C-1.8 50.00375 -3.0375 49.6325 -4.3125 49.25 C-14.57139719 45.82495679 -25.25067913 41.27594502 -30.5625 31.375 C-31.58022632 24.93173959 -31.88316492 17.66135856 -28.625 11.8125 C-21.38742126 2.37486181 -11.28369003 -0.01919811 0 0 Z " fill="#F2BC00" transform="translate(149.5625,345.625)"/>
<path d="M0 0 C2.09826627 1.25980244 4.01879147 2.66044444 5.9453125 4.16796875 C6.2753125 2.51796875 6.6053125 0.86796875 6.9453125 -0.83203125 C15.5253125 -0.83203125 24.1053125 -0.83203125 32.9453125 -0.83203125 C32.9453125 23.58796875 32.9453125 48.00796875 32.9453125 73.16796875 C24.6953125 73.16796875 16.4453125 73.16796875 7.9453125 73.16796875 C7.4503125 69.70296875 7.4503125 69.70296875 6.9453125 66.16796875 C6.460625 66.56628906 5.9759375 66.96460938 5.4765625 67.375 C-4.26697905 75.07614534 -12.96375136 76.23090819 -25.0546875 75.16796875 C-34.11638052 73.14623644 -41.95994462 67.46116566 -47.3671875 59.98046875 C-53.7518309 49.45203172 -55.5679196 38.58513638 -53.6171875 26.4453125 C-51.18662579 16.85978477 -45.35844762 7.65659485 -37.0546875 2.16796875 C-25.970407 -4.1834674 -11.79221158 -5.51571187 0 0 Z " fill="#F3BC00" transform="translate(289.0546875,348.83203125)"/>
<path d="M0 0 C3.63733588 3.50766258 6.85168838 7.18279451 9.9375 11.1875 C10.63214355 12.08021606 10.63214355 12.08021606 11.34082031 12.9909668 C12.35157839 14.29067925 13.36079436 15.59159208 14.36865234 16.89355469 C16.10264296 19.13253569 17.84182022 21.36741326 19.58203125 23.6015625 C22.48690608 27.3316815 25.39017435 31.06302624 28.28710938 34.79931641 C29.51230575 36.37342133 30.74345691 37.94289858 31.97851562 39.50927734 C32.61982422 40.32477051 33.26113281 41.14026367 33.921875 41.98046875 C34.5106543 42.72578857 35.09943359 43.4711084 35.70605469 44.23901367 C37 46 37 46 37 47 C29.41 47 21.82 47 14 47 C14.00580078 49.70324463 14.01160156 52.40648926 14.01757812 55.19165039 C14.0690491 86.66668481 13.83839342 118.13634346 13.53643799 149.60974121 C13.47450738 156.11546369 13.41511643 162.62120939 13.35546875 169.12695312 C13.23936986 181.75132542 13.12037504 194.37566776 13 207 C4.42 207 -4.16 207 -13 207 C-13 154.2 -13 101.4 -13 47 C-20.59 47 -28.18 47 -36 47 C-31.50113379 40.25170068 -31.50113379 40.25170068 -29.0390625 37.109375 C-28.49169434 36.4083667 -27.94432617 35.7073584 -27.38037109 34.98510742 C-26.5114624 33.87872925 -26.5114624 33.87872925 -25.625 32.75 C-24.38013395 31.15761023 -23.13534463 29.56516048 -21.890625 27.97265625 C-21.25189453 27.15684082 -20.61316406 26.34102539 -19.95507812 25.50048828 C-16.16428105 20.65216864 -12.39404754 15.78783104 -8.61962891 10.92675781 C-5.7719714 7.26344803 -2.91076407 3.6136071 0 0 Z " fill="#F2BB00" transform="translate(342,215)"/>
<path d="M0 0 C8.59974295 5.86940631 13.69394513 13.59411675 15.7421875 23.71484375 C15.7421875 28.00484375 15.7421875 32.29484375 15.7421875 36.71484375 C-2.0778125 36.71484375 -19.8978125 36.71484375 -38.2578125 36.71484375 C-35.11335059 46.21347949 -35.11335059 46.21347949 -28.2578125 50.71484375 C-22.63147443 52.59028977 -17.31194247 52.53540939 -11.9453125 49.90234375 C-9.76229868 48.69435191 -8.00037768 47.50154061 -6.0703125 45.90234375 C-4.2578125 44.71484375 -4.2578125 44.71484375 -2.1015625 44.91796875 C1.51982895 45.93275427 4.73404253 47.55033478 8.0546875 49.27734375 C8.69986328 49.60669922 9.34503906 49.93605469 10.00976562 50.27539062 C11.59003978 51.0830863 13.16650855 51.89821988 14.7421875 52.71484375 C11.30208491 62.22380656 3.90411799 66.02040067 -4.7578125 70.33203125 C-14.83520351 74.31350046 -29.5753783 74.62051931 -39.7578125 70.77734375 C-50.55105884 65.51563616 -58.85154095 56.37995198 -63.26953125 45.30078125 C-65.77578186 36.20695494 -65.75720623 25.4986605 -61.57421875 16.9140625 C-56.77642027 8.89874932 -51.33776104 3.45475277 -43.2578125 -1.28515625 C-42.53335937 -1.72085937 -41.80890625 -2.1565625 -41.0625 -2.60546875 C-28.83167349 -8.69957394 -11.51860884 -6.55643998 0 0 Z " fill="#F3BC00" transform="translate(421.2578125,351.28515625)"/>
<path d="M0 0 C5.03359633 2.3843351 8.49996787 5.99993573 11 11 C11.59611364 17.27065695 11.25658131 22.46381177 8 28 C3.74464397 32.4762625 -0.12387741 34.14993529 -6.25 34.3125 C-11.79398482 34.23926374 -14.65024731 33.46204806 -19 30 C-23.41449136 24.67997195 -23.61728536 19.84659433 -23.3828125 13.03125 C-22.70457586 7.66072314 -20.29902916 5.26572072 -16.5625 1.625 C-11.10589945 -0.86397569 -5.89748993 -0.74375988 0 0 Z " fill="#073241" transform="translate(286,368)"/>
<path d="M0 0 C3.63175519 1.8158776 6.27103235 4.51859988 8.08203125 8.1484375 C9.88632279 14.13783131 9.76214637 20.2243735 7.0546875 25.83984375 C3.22244154 29.98281236 0.04858018 33.02321902 -5.74609375 33.578125 C-11.80437603 33.73733297 -15.55737714 33.58170005 -20.2578125 29.33984375 C-25.07246181 23.87456616 -25.61260939 20.57655506 -25.53515625 13.390625 C-25.02468474 7.77543843 -22.80384792 4.88587917 -18.8203125 0.90234375 C-12.88175879 -1.70228507 -6.24693674 -1.82652649 0 0 Z " fill="#073241" transform="translate(587.2578125,368.66015625)"/>
<path d="M0 0 C3.27638802 2.23390092 4.86904915 4.40247535 6.75 7.875 C6.75 8.865 6.75 9.855 6.75 10.875 C-2.16 10.875 -11.07 10.875 -20.25 10.875 C-19.25 3.875 -19.25 3.875 -17.68359375 2.09765625 C-11.44398552 -1.52888709 -7.0475885 -2.43954987 0 0 Z " fill="#0A3440" transform="translate(405.25,363.125)"/>
</svg>
